<mxfile host="app.diagrams.net" modified="2022-07-22T20:49:48.438Z" agent="5.0 (X11; Linux x86_64) AppleWebKit/537.36 (KHTML, like Gecko) Chrome/103.0.0.0 Safari/537.36" etag="EO3_PiYxNomN1_7xqc9K" version="20.1.1" type="github">
  <diagram id="R2lEEEUBdFMjLlhIrx00" name="Page-1">
    <mxGraphModel dx="1770" dy="766" grid="1" gridSize="10" guides="1" tooltips="1" connect="1" arrows="1" fold="1" page="1" pageScale="1" pageWidth="850" pageHeight="1100" math="0" shadow="0" extFonts="Permanent Marker^https://fonts.googleapis.com/css?family=Permanent+Marker">
      <root>
        <mxCell id="0" />
        <mxCell id="1" parent="0" />
        <mxCell id="BMGsXzUHXEc67qQ0laH6-1" value="Mesa" style="rounded=0;whiteSpace=wrap;html=1;" vertex="1" parent="1">
          <mxGeometry x="80" y="90" width="120" height="60" as="geometry" />
        </mxCell>
        <mxCell id="BMGsXzUHXEc67qQ0laH6-2" value="Pedido" style="rounded=0;whiteSpace=wrap;html=1;" vertex="1" parent="1">
          <mxGeometry x="80" y="390" width="120" height="60" as="geometry" />
        </mxCell>
        <mxCell id="BMGsXzUHXEc67qQ0laH6-3" value="OpcionPedido" style="rounded=0;whiteSpace=wrap;html=1;" vertex="1" parent="1">
          <mxGeometry x="370" y="540" width="120" height="60" as="geometry" />
        </mxCell>
        <mxCell id="BMGsXzUHXEc67qQ0laH6-4" value="Cliente" style="rounded=0;whiteSpace=wrap;html=1;" vertex="1" parent="1">
          <mxGeometry x="700" y="540" width="120" height="60" as="geometry" />
        </mxCell>
        <mxCell id="BMGsXzUHXEc67qQ0laH6-5" value="DÃ­a" style="rounded=0;whiteSpace=wrap;html=1;" vertex="1" parent="1">
          <mxGeometry x="550" y="190" width="120" height="60" as="geometry" />
        </mxCell>
        <mxCell id="BMGsXzUHXEc67qQ0laH6-7" value="" style="endArrow=none;html=1;rounded=0;exitX=1;exitY=0.5;exitDx=0;exitDy=0;" edge="1" parent="1" source="BMGsXzUHXEc67qQ0laH6-1">
          <mxGeometry width="50" height="50" relative="1" as="geometry">
            <mxPoint x="400" y="420" as="sourcePoint" />
            <mxPoint x="250" y="80" as="targetPoint" />
          </mxGeometry>
        </mxCell>
        <mxCell id="BMGsXzUHXEc67qQ0laH6-9" value="1" style="text;html=1;align=center;verticalAlign=middle;resizable=0;points=[];autosize=1;strokeColor=none;fillColor=none;" vertex="1" parent="1">
          <mxGeometry x="135" y="145" width="30" height="30" as="geometry" />
        </mxCell>
        <mxCell id="BMGsXzUHXEc67qQ0laH6-10" value="N" style="text;html=1;align=center;verticalAlign=middle;resizable=0;points=[];autosize=1;strokeColor=none;fillColor=none;" vertex="1" parent="1">
          <mxGeometry x="135" y="365" width="30" height="30" as="geometry" />
        </mxCell>
        <mxCell id="BMGsXzUHXEc67qQ0laH6-11" value="N" style="text;html=1;align=center;verticalAlign=middle;resizable=0;points=[];autosize=1;strokeColor=none;fillColor=none;" vertex="1" parent="1">
          <mxGeometry x="105" y="145" width="30" height="30" as="geometry" />
        </mxCell>
        <mxCell id="BMGsXzUHXEc67qQ0laH6-12" value="1" style="text;html=1;align=center;verticalAlign=middle;resizable=0;points=[];autosize=1;strokeColor=none;fillColor=none;" vertex="1" parent="1">
          <mxGeometry x="105" y="365" width="30" height="30" as="geometry" />
        </mxCell>
        <mxCell id="BMGsXzUHXEc67qQ0laH6-14" value="" style="endArrow=none;html=1;rounded=0;exitX=1;exitY=0.5;exitDx=0;exitDy=0;entryX=0;entryY=0.5;entryDx=0;entryDy=0;" edge="1" parent="1" source="BMGsXzUHXEc67qQ0laH6-2" target="BMGsXzUHXEc67qQ0laH6-25">
          <mxGeometry width="50" height="50" relative="1" as="geometry">
            <mxPoint x="210" y="130" as="sourcePoint" />
            <mxPoint x="290" y="410" as="targetPoint" />
          </mxGeometry>
        </mxCell>
        <mxCell id="BMGsXzUHXEc67qQ0laH6-15" value="N:M" style="rhombus;whiteSpace=wrap;html=1;" vertex="1" parent="1">
          <mxGeometry x="100" y="230" width="80" height="80" as="geometry" />
        </mxCell>
        <mxCell id="BMGsXzUHXEc67qQ0laH6-16" value="" style="endArrow=none;html=1;rounded=0;exitX=0.5;exitY=1;exitDx=0;exitDy=0;" edge="1" parent="1" source="BMGsXzUHXEc67qQ0laH6-15" target="BMGsXzUHXEc67qQ0laH6-2">
          <mxGeometry width="50" height="50" relative="1" as="geometry">
            <mxPoint x="160" y="420" as="sourcePoint" />
            <mxPoint x="210" y="370" as="targetPoint" />
          </mxGeometry>
        </mxCell>
        <mxCell id="BMGsXzUHXEc67qQ0laH6-17" value="" style="endArrow=none;html=1;rounded=0;exitX=0.5;exitY=0;exitDx=0;exitDy=0;" edge="1" parent="1" source="BMGsXzUHXEc67qQ0laH6-15" target="BMGsXzUHXEc67qQ0laH6-1">
          <mxGeometry width="50" height="50" relative="1" as="geometry">
            <mxPoint x="160" y="420" as="sourcePoint" />
            <mxPoint x="210" y="370" as="targetPoint" />
          </mxGeometry>
        </mxCell>
        <mxCell id="BMGsXzUHXEc67qQ0laH6-18" value="" style="endArrow=none;html=1;rounded=0;exitX=1;exitY=0;exitDx=0;exitDy=0;entryX=0;entryY=0.5;entryDx=0;entryDy=0;" edge="1" parent="1" source="BMGsXzUHXEc67qQ0laH6-15" target="BMGsXzUHXEc67qQ0laH6-37">
          <mxGeometry width="50" height="50" relative="1" as="geometry">
            <mxPoint x="160" y="420" as="sourcePoint" />
            <mxPoint x="245" y="200" as="targetPoint" />
          </mxGeometry>
        </mxCell>
        <mxCell id="BMGsXzUHXEc67qQ0laH6-21" value="" style="endArrow=none;html=1;rounded=0;exitX=1;exitY=1;exitDx=0;exitDy=0;entryX=0;entryY=0.5;entryDx=0;entryDy=0;" edge="1" parent="1" source="BMGsXzUHXEc67qQ0laH6-15" target="BMGsXzUHXEc67qQ0laH6-24">
          <mxGeometry width="50" height="50" relative="1" as="geometry">
            <mxPoint x="160" y="420" as="sourcePoint" />
            <mxPoint x="245" y="305" as="targetPoint" />
          </mxGeometry>
        </mxCell>
        <mxCell id="BMGsXzUHXEc67qQ0laH6-22" value="numeroMesa" style="ellipse;whiteSpace=wrap;html=1;fillColor=#fff2cc;strokeColor=#d6b656;" vertex="1" parent="1">
          <mxGeometry x="245" y="40" width="120" height="80" as="geometry" />
        </mxCell>
        <mxCell id="BMGsXzUHXEc67qQ0laH6-24" value="numeroPedido1" style="ellipse;whiteSpace=wrap;html=1;fillColor=default;strokeColor=#d6b656;gradientColor=#FFD966;gradientDirection=west;" vertex="1" parent="1">
          <mxGeometry x="240" y="250" width="120" height="80" as="geometry" />
        </mxCell>
        <mxCell id="BMGsXzUHXEc67qQ0laH6-25" value="numeroPedido" style="ellipse;whiteSpace=wrap;html=1;fillColor=#fff2cc;strokeColor=#d6b656;" vertex="1" parent="1">
          <mxGeometry x="245" y="350" width="120" height="80" as="geometry" />
        </mxCell>
        <mxCell id="BMGsXzUHXEc67qQ0laH6-28" value="1" style="text;html=1;align=center;verticalAlign=middle;resizable=0;points=[];autosize=1;strokeColor=none;fillColor=none;" vertex="1" parent="1">
          <mxGeometry x="140" y="445" width="30" height="30" as="geometry" />
        </mxCell>
        <mxCell id="BMGsXzUHXEc67qQ0laH6-29" value="N" style="text;html=1;align=center;verticalAlign=middle;resizable=0;points=[];autosize=1;strokeColor=none;fillColor=none;" vertex="1" parent="1">
          <mxGeometry x="340" y="540" width="30" height="30" as="geometry" />
        </mxCell>
        <mxCell id="BMGsXzUHXEc67qQ0laH6-30" value="1" style="text;html=1;align=center;verticalAlign=middle;resizable=0;points=[];autosize=1;strokeColor=none;fillColor=none;" vertex="1" parent="1">
          <mxGeometry x="340" y="570" width="30" height="30" as="geometry" />
        </mxCell>
        <mxCell id="BMGsXzUHXEc67qQ0laH6-31" value="N" style="text;html=1;align=center;verticalAlign=middle;resizable=0;points=[];autosize=1;strokeColor=none;fillColor=none;" vertex="1" parent="1">
          <mxGeometry x="110" y="445" width="30" height="30" as="geometry" />
        </mxCell>
        <mxCell id="BMGsXzUHXEc67qQ0laH6-32" value="N:M" style="rhombus;whiteSpace=wrap;html=1;" vertex="1" parent="1">
          <mxGeometry x="100" y="530" width="80" height="80" as="geometry" />
        </mxCell>
        <mxCell id="BMGsXzUHXEc67qQ0laH6-33" value="" style="endArrow=none;html=1;rounded=0;exitX=1;exitY=0.5;exitDx=0;exitDy=0;entryX=0;entryY=0.5;entryDx=0;entryDy=0;" edge="1" parent="1" source="BMGsXzUHXEc67qQ0laH6-32" target="BMGsXzUHXEc67qQ0laH6-3">
          <mxGeometry width="50" height="50" relative="1" as="geometry">
            <mxPoint x="390" y="450" as="sourcePoint" />
            <mxPoint x="440" y="400" as="targetPoint" />
          </mxGeometry>
        </mxCell>
        <mxCell id="BMGsXzUHXEc67qQ0laH6-34" value="" style="endArrow=none;html=1;rounded=0;exitX=0.5;exitY=0;exitDx=0;exitDy=0;" edge="1" parent="1" source="BMGsXzUHXEc67qQ0laH6-32" target="BMGsXzUHXEc67qQ0laH6-2">
          <mxGeometry width="50" height="50" relative="1" as="geometry">
            <mxPoint x="390" y="450" as="sourcePoint" />
            <mxPoint x="440" y="400" as="targetPoint" />
          </mxGeometry>
        </mxCell>
        <mxCell id="BMGsXzUHXEc67qQ0laH6-35" value="opcionPedido" style="ellipse;whiteSpace=wrap;html=1;fillColor=#fff2cc;strokeColor=#d6b656;" vertex="1" parent="1">
          <mxGeometry x="285" y="620" width="85" height="60" as="geometry" />
        </mxCell>
        <mxCell id="BMGsXzUHXEc67qQ0laH6-36" value="" style="endArrow=none;html=1;rounded=0;exitX=0.5;exitY=1;exitDx=0;exitDy=0;entryX=1;entryY=0;entryDx=0;entryDy=0;" edge="1" parent="1" source="BMGsXzUHXEc67qQ0laH6-3" target="BMGsXzUHXEc67qQ0laH6-35">
          <mxGeometry width="50" height="50" relative="1" as="geometry">
            <mxPoint x="390" y="500" as="sourcePoint" />
            <mxPoint x="440" y="450" as="targetPoint" />
          </mxGeometry>
        </mxCell>
        <mxCell id="BMGsXzUHXEc67qQ0laH6-37" value="numeroMesa1" style="ellipse;whiteSpace=wrap;html=1;fillColor=default;strokeColor=#d6b656;gradientColor=#FFD966;gradientDirection=west;" vertex="1" parent="1">
          <mxGeometry x="220" y="160" width="120" height="80" as="geometry" />
        </mxCell>
        <mxCell id="BMGsXzUHXEc67qQ0laH6-38" value="numeroPedido2" style="ellipse;whiteSpace=wrap;html=1;fillColor=default;strokeColor=#d6b656;gradientColor=#FFD966;gradientDirection=west;" vertex="1" parent="1">
          <mxGeometry x="-50" y="490" width="120" height="80" as="geometry" />
        </mxCell>
        <mxCell id="BMGsXzUHXEc67qQ0laH6-39" value="" style="endArrow=none;html=1;rounded=0;exitX=0;exitY=0;exitDx=0;exitDy=0;entryX=1;entryY=0.5;entryDx=0;entryDy=0;" edge="1" parent="1" source="BMGsXzUHXEc67qQ0laH6-32" target="BMGsXzUHXEc67qQ0laH6-38">
          <mxGeometry width="50" height="50" relative="1" as="geometry">
            <mxPoint x="300" y="400" as="sourcePoint" />
            <mxPoint x="350" y="350" as="targetPoint" />
          </mxGeometry>
        </mxCell>
        <mxCell id="BMGsXzUHXEc67qQ0laH6-40" value="opcionPedido1" style="ellipse;whiteSpace=wrap;html=1;fillColor=default;strokeColor=#d6b656;gradientColor=#FFD966;gradientDirection=west;" vertex="1" parent="1">
          <mxGeometry x="-60" y="590" width="120" height="80" as="geometry" />
        </mxCell>
        <mxCell id="BMGsXzUHXEc67qQ0laH6-41" value="" style="endArrow=none;html=1;rounded=0;exitX=0;exitY=1;exitDx=0;exitDy=0;entryX=1;entryY=0.5;entryDx=0;entryDy=0;" edge="1" parent="1" source="BMGsXzUHXEc67qQ0laH6-32" target="BMGsXzUHXEc67qQ0laH6-40">
          <mxGeometry width="50" height="50" relative="1" as="geometry">
            <mxPoint x="300" y="400" as="sourcePoint" />
            <mxPoint x="350" y="350" as="targetPoint" />
          </mxGeometry>
        </mxCell>
        <mxCell id="BMGsXzUHXEc67qQ0laH6-42" value="" style="endArrow=none;html=1;rounded=0;exitX=1;exitY=0.5;exitDx=0;exitDy=0;entryX=0;entryY=0.5;entryDx=0;entryDy=0;" edge="1" parent="1" source="BMGsXzUHXEc67qQ0laH6-3" target="BMGsXzUHXEc67qQ0laH6-4">
          <mxGeometry width="50" height="50" relative="1" as="geometry">
            <mxPoint x="390" y="450" as="sourcePoint" />
            <mxPoint x="440" y="400" as="targetPoint" />
          </mxGeometry>
        </mxCell>
        <mxCell id="BMGsXzUHXEc67qQ0laH6-43" value="1" style="text;html=1;align=center;verticalAlign=middle;resizable=0;points=[];autosize=1;strokeColor=none;fillColor=none;" vertex="1" parent="1">
          <mxGeometry x="670" y="540" width="30" height="30" as="geometry" />
        </mxCell>
        <mxCell id="BMGsXzUHXEc67qQ0laH6-44" value="N" style="text;html=1;align=center;verticalAlign=middle;resizable=0;points=[];autosize=1;strokeColor=none;fillColor=none;" vertex="1" parent="1">
          <mxGeometry x="490" y="540" width="30" height="30" as="geometry" />
        </mxCell>
        <mxCell id="BMGsXzUHXEc67qQ0laH6-45" value="1" style="text;html=1;align=center;verticalAlign=middle;resizable=0;points=[];autosize=1;strokeColor=none;fillColor=none;" vertex="1" parent="1">
          <mxGeometry x="495" y="575" width="30" height="30" as="geometry" />
        </mxCell>
        <mxCell id="BMGsXzUHXEc67qQ0laH6-46" value="N" style="text;html=1;align=center;verticalAlign=middle;resizable=0;points=[];autosize=1;strokeColor=none;fillColor=none;" vertex="1" parent="1">
          <mxGeometry x="670" y="570" width="30" height="30" as="geometry" />
        </mxCell>
        <mxCell id="BMGsXzUHXEc67qQ0laH6-47" value="N:M" style="rhombus;whiteSpace=wrap;html=1;" vertex="1" parent="1">
          <mxGeometry x="545" y="530" width="80" height="80" as="geometry" />
        </mxCell>
        <mxCell id="BMGsXzUHXEc67qQ0laH6-48" value="nombre" style="ellipse;whiteSpace=wrap;html=1;fillColor=#fff2cc;strokeColor=#d6b656;" vertex="1" parent="1">
          <mxGeometry x="700" y="660" width="120" height="80" as="geometry" />
        </mxCell>
        <mxCell id="BMGsXzUHXEc67qQ0laH6-49" value="" style="endArrow=none;html=1;rounded=0;exitX=0.5;exitY=1;exitDx=0;exitDy=0;entryX=0.5;entryY=0;entryDx=0;entryDy=0;" edge="1" parent="1" source="BMGsXzUHXEc67qQ0laH6-4" target="BMGsXzUHXEc67qQ0laH6-48">
          <mxGeometry width="50" height="50" relative="1" as="geometry">
            <mxPoint x="460" y="450" as="sourcePoint" />
            <mxPoint x="510" y="400" as="targetPoint" />
          </mxGeometry>
        </mxCell>
        <mxCell id="BMGsXzUHXEc67qQ0laH6-50" value="opcionPedido1" style="ellipse;whiteSpace=wrap;html=1;fillColor=default;strokeColor=#d6b656;gradientColor=#FFD966;gradientDirection=west;" vertex="1" parent="1">
          <mxGeometry x="480" y="630" width="90" height="60" as="geometry" />
        </mxCell>
        <mxCell id="BMGsXzUHXEc67qQ0laH6-52" value="nombre1" style="ellipse;whiteSpace=wrap;html=1;fillColor=default;strokeColor=#d6b656;gradientColor=#FFD966;gradientDirection=west;" vertex="1" parent="1">
          <mxGeometry x="570" y="640" width="90" height="60" as="geometry" />
        </mxCell>
        <mxCell id="BMGsXzUHXEc67qQ0laH6-53" value="" style="endArrow=none;html=1;rounded=0;exitX=0;exitY=1;exitDx=0;exitDy=0;entryX=0.5;entryY=0;entryDx=0;entryDy=0;" edge="1" parent="1" source="BMGsXzUHXEc67qQ0laH6-47" target="BMGsXzUHXEc67qQ0laH6-50">
          <mxGeometry width="50" height="50" relative="1" as="geometry">
            <mxPoint x="530" y="500" as="sourcePoint" />
            <mxPoint x="510" y="400" as="targetPoint" />
          </mxGeometry>
        </mxCell>
        <mxCell id="BMGsXzUHXEc67qQ0laH6-54" value="" style="endArrow=none;html=1;rounded=0;exitX=1;exitY=1;exitDx=0;exitDy=0;entryX=0.5;entryY=0;entryDx=0;entryDy=0;" edge="1" parent="1" source="BMGsXzUHXEc67qQ0laH6-47" target="BMGsXzUHXEc67qQ0laH6-52">
          <mxGeometry width="50" height="50" relative="1" as="geometry">
            <mxPoint x="460" y="450" as="sourcePoint" />
            <mxPoint x="510" y="400" as="targetPoint" />
          </mxGeometry>
        </mxCell>
        <mxCell id="BMGsXzUHXEc67qQ0laH6-56" value="" style="endArrow=none;html=1;rounded=0;exitX=0.5;exitY=1;exitDx=0;exitDy=0;entryX=0.5;entryY=0;entryDx=0;entryDy=0;" edge="1" parent="1" source="BMGsXzUHXEc67qQ0laH6-57" target="BMGsXzUHXEc67qQ0laH6-5">
          <mxGeometry width="50" height="50" relative="1" as="geometry">
            <mxPoint x="540" y="290" as="sourcePoint" />
            <mxPoint x="590" y="240" as="targetPoint" />
          </mxGeometry>
        </mxCell>
        <mxCell id="BMGsXzUHXEc67qQ0laH6-57" value="nombreDia" style="ellipse;whiteSpace=wrap;html=1;fillColor=#fff2cc;strokeColor=#d6b656;" vertex="1" parent="1">
          <mxGeometry x="600" y="70" width="85" height="60" as="geometry" />
        </mxCell>
        <mxCell id="BMGsXzUHXEc67qQ0laH6-59" value="1" style="text;html=1;align=center;verticalAlign=middle;resizable=0;points=[];autosize=1;strokeColor=none;fillColor=none;" vertex="1" parent="1">
          <mxGeometry x="605" y="255" width="30" height="30" as="geometry" />
        </mxCell>
        <mxCell id="BMGsXzUHXEc67qQ0laH6-60" value="N" style="text;html=1;align=center;verticalAlign=middle;resizable=0;points=[];autosize=1;strokeColor=none;fillColor=none;" vertex="1" parent="1">
          <mxGeometry x="445" y="515" width="30" height="30" as="geometry" />
        </mxCell>
        <mxCell id="BMGsXzUHXEc67qQ0laH6-61" value="1" style="text;html=1;align=center;verticalAlign=middle;resizable=0;points=[];autosize=1;strokeColor=none;fillColor=none;" vertex="1" parent="1">
          <mxGeometry x="405" y="515" width="30" height="30" as="geometry" />
        </mxCell>
        <mxCell id="BMGsXzUHXEc67qQ0laH6-62" value="N" style="text;html=1;align=center;verticalAlign=middle;resizable=0;points=[];autosize=1;strokeColor=none;fillColor=none;" vertex="1" parent="1">
          <mxGeometry x="565" y="245" width="30" height="30" as="geometry" />
        </mxCell>
        <mxCell id="BMGsXzUHXEc67qQ0laH6-63" value="N:M" style="rhombus;whiteSpace=wrap;html=1;" vertex="1" parent="1">
          <mxGeometry x="465" y="340" width="80" height="80" as="geometry" />
        </mxCell>
        <mxCell id="BMGsXzUHXEc67qQ0laH6-64" value="" style="endArrow=none;html=1;rounded=0;entryX=1;entryY=0;entryDx=0;entryDy=0;exitX=0.5;exitY=1;exitDx=0;exitDy=0;" edge="1" parent="1" source="BMGsXzUHXEc67qQ0laH6-5" target="BMGsXzUHXEc67qQ0laH6-63">
          <mxGeometry width="50" height="50" relative="1" as="geometry">
            <mxPoint x="460" y="450" as="sourcePoint" />
            <mxPoint x="510" y="400" as="targetPoint" />
          </mxGeometry>
        </mxCell>
        <mxCell id="BMGsXzUHXEc67qQ0laH6-65" value="" style="endArrow=none;html=1;rounded=0;exitX=0;exitY=1;exitDx=0;exitDy=0;" edge="1" parent="1" source="BMGsXzUHXEc67qQ0laH6-63" target="BMGsXzUHXEc67qQ0laH6-3">
          <mxGeometry width="50" height="50" relative="1" as="geometry">
            <mxPoint x="460" y="450" as="sourcePoint" />
            <mxPoint x="510" y="400" as="targetPoint" />
          </mxGeometry>
        </mxCell>
        <mxCell id="BMGsXzUHXEc67qQ0laH6-66" value="nombreDia1" style="ellipse;whiteSpace=wrap;html=1;fillColor=default;strokeColor=#d6b656;gradientColor=#FFD966;gradientDirection=west;" vertex="1" parent="1">
          <mxGeometry x="600" y="305" width="90" height="60" as="geometry" />
        </mxCell>
        <mxCell id="BMGsXzUHXEc67qQ0laH6-67" value="opcionPedido2" style="ellipse;whiteSpace=wrap;html=1;fillColor=default;strokeColor=#d6b656;gradientColor=#FFD966;gradientDirection=west;" vertex="1" parent="1">
          <mxGeometry x="590" y="390" width="90" height="60" as="geometry" />
        </mxCell>
        <mxCell id="BMGsXzUHXEc67qQ0laH6-68" value="" style="endArrow=none;html=1;rounded=0;entryX=1;entryY=1;entryDx=0;entryDy=0;exitX=0;exitY=0.5;exitDx=0;exitDy=0;" edge="1" parent="1" source="BMGsXzUHXEc67qQ0laH6-67" target="BMGsXzUHXEc67qQ0laH6-63">
          <mxGeometry width="50" height="50" relative="1" as="geometry">
            <mxPoint x="460" y="450" as="sourcePoint" />
            <mxPoint x="510" y="400" as="targetPoint" />
          </mxGeometry>
        </mxCell>
        <mxCell id="BMGsXzUHXEc67qQ0laH6-69" value="" style="endArrow=none;html=1;rounded=0;entryX=1;entryY=0.5;entryDx=0;entryDy=0;exitX=0;exitY=0.5;exitDx=0;exitDy=0;" edge="1" parent="1" source="BMGsXzUHXEc67qQ0laH6-66" target="BMGsXzUHXEc67qQ0laH6-63">
          <mxGeometry width="50" height="50" relative="1" as="geometry">
            <mxPoint x="460" y="450" as="sourcePoint" />
            <mxPoint x="510" y="400" as="targetPoint" />
          </mxGeometry>
        </mxCell>
      </root>
    </mxGraphModel>
  </diagram>
</mxfile>
